<?xml version="1.0"?>
<svg xmlns="http://www.w3.org/2000/svg" xmlns:xlink="http://www.w3.org/1999/xlink" version="1.1" viewBox="0 0 192 192" width="64px" height="64px"><g fill="none" fill-rule="nonzero" stroke="none" stroke-width="1" stroke-linecap="butt" stroke-linejoin="miter" stroke-miterlimit="10" stroke-dasharray="" stroke-dashoffset="0" font-family="none" font-weight="none" font-size="none" text-anchor="none" style="mix-blend-mode: normal"><path d="M0,192v-192h192v192z" fill="none"/><g fill="#e74c3c"><g id="surface1"><path d="M36,12c-6.62109,0 -12,5.37891 -12,12v144c0,6.62109 5.37891,12 12,12h105c4.95703,0 9,-4.04297 9,-9v-9.55078c3.48047,-1.24219 6,-4.54687 6,-8.44922v-19.14844l8.68359,-4.33594c2.03906,-1.01953 3.31641,-3.08203 3.31641,-5.36719v-88.14844c0,-3.30469 -2.69531,-6 -6,-6h-6v-9c0,-4.95703 -4.04297,-9 -9,-9zM36,18h111c1.65234,0 3,1.34766 3,3v132c0,1.65234 -1.34766,3 -3,3h-87v-105c0,-1.65234 -1.33594,-3 -3,-3c-1.66406,0 -3,1.34766 -3,3v105h-18c-1.85156,0 -4.01953,0.66797 -6,1.89844v-133.89844c0,-3.30469 2.69531,-6 6,-6zM39,24c-1.66406,0 -3,1.34766 -3,3c0,1.65234 1.33594,3 3,3h6c1.66406,0 3,-1.34766 3,-3c0,-1.65234 -1.33594,-3 -3,-3zM57,24c-1.66406,0 -3,1.34766 -3,3v12c0,1.65234 1.33594,3 3,3c1.66406,0 3,-1.34766 3,-3v-12c0,-1.65234 -1.33594,-3 -3,-3zM156,36h6v28.14844l-6,3zM39,39c-1.66406,0 -3,1.34766 -3,3c0,1.65234 1.33594,3 3,3h6c1.66406,0 3,-1.34766 3,-3c0,-1.65234 -1.33594,-3 -3,-3zM39,54c-1.66406,0 -3,1.34766 -3,3c0,1.65234 1.33594,3 3,3h6c1.66406,0 3,-1.34766 3,-3c0,-1.65234 -1.33594,-3 -3,-3zM105,54c-8.27344,0 -15,6.72656 -15,15v6c0,2.88281 0.85547,5.55469 2.28516,7.83984c-7.89844,3.0586 -14.13281,9.71485 -16.39453,18.2461c-0.42187,1.60547 0.53906,3.24609 2.14453,3.66797c1.59375,0.42188 3.23438,-0.53906 3.66797,-2.14453c1.99219,-7.53516 7.99219,-13.14844 15.33984,-14.94141c2.3086,1.45313 5.02735,2.33203 7.95703,2.33203c2.92969,0 5.64844,-0.87891 7.95703,-2.34375c7.34766,1.80469 13.35938,7.41797 15.35156,14.96484c0.35156,1.34766 1.57031,2.23828 2.89453,2.23828c0.25781,0 0.51563,-0.03516 0.76172,-0.10547c1.60547,-0.42187 2.56641,-2.0625 2.14453,-3.66797c-2.26172,-8.54297 -8.48437,-15.1875 -16.38281,-18.2461c1.41797,-2.28515 2.27344,-4.95703 2.27344,-7.83984v-6c0,-8.27344 -6.72656,-15 -15,-15zM105,59.49609c5.16797,0 9.375,4.20703 9.375,9.375v6.25781c0,5.16797 -4.20703,9.375 -9.375,9.375c-5.16797,0 -9.375,-4.20703 -9.375,-9.375v-6.25781c0,-5.16797 4.20703,-9.375 9.375,-9.375zM39,69c-1.66406,0 -3,1.34766 -3,3c0,1.65234 1.33594,3 3,3h6c1.66406,0 3,-1.34766 3,-3c0,-1.65234 -1.33594,-3 -3,-3zM162,70.85156v23.29688l-6,3v-23.29687zM39,84c-1.66406,0 -3,1.34766 -3,3c0,1.65234 1.33594,3 3,3h6c1.66406,0 3,-1.34766 3,-3c0,-1.65234 -1.33594,-3 -3,-3zM39,99c-1.66406,0 -3,1.34766 -3,3c0,1.65234 1.33594,3 3,3h6c1.66406,0 3,-1.34766 3,-3c0,-1.65234 -1.33594,-3 -3,-3zM162,100.85156v23.29688l-6,3v-23.29687zM39,114c-1.66406,0 -3,1.34766 -3,3c0,1.65234 1.33594,3 3,3h6c1.66406,0 3,-1.34766 3,-3c0,-1.65234 -1.33594,-3 -3,-3zM93,114c-1.66406,0 -3,1.34766 -3,3c0,1.65234 1.33594,3 3,3h24c1.66406,0 3,-1.34766 3,-3c0,-1.65234 -1.33594,-3 -3,-3zM87,126c-1.66406,0 -3,1.34766 -3,3c0,1.65234 1.33594,3 3,3h12c1.66406,0 3,-1.34766 3,-3c0,-1.65234 -1.33594,-3 -3,-3zM111,126c-1.66406,0 -3,1.34766 -3,3c0,1.65234 1.33594,3 3,3h12c1.66406,0 3,-1.34766 3,-3c0,-1.65234 -1.33594,-3 -3,-3zM39,129c-1.66406,0 -3,1.34766 -3,3c0,1.65234 1.33594,3 3,3h6c1.66406,0 3,-1.34766 3,-3c0,-1.65234 -1.33594,-3 -3,-3zM39,144c-1.66406,0 -3,1.34766 -3,3c0,1.65234 1.33594,3 3,3h6c1.66406,0 3,-1.34766 3,-3c0,-1.65234 -1.33594,-3 -3,-3zM36,162h108v9c0,1.65234 -1.34766,3 -3,3h-105c-3.30469,0 -6,-2.69531 -6,-6c0,-3.73828 4.17188,-6 6,-6z"/></g></g></g></svg>
