<?xml version="1.0" encoding="utf-8"?>
<!-- Generator: Adobe Illustrator 16.0.0, SVG Export Plug-In . SVG Version: 6.00 Build 0)  -->
<!DOCTYPE svg PUBLIC "-//W3C//DTD SVG 1.1//EN" "http://www.w3.org/Graphics/SVG/1.1/DTD/svg11.dtd">
<svg version="1.1" id="Layer_1" xmlns="http://www.w3.org/2000/svg" xmlns:xlink="http://www.w3.org/1999/xlink" x="0px" y="0px"
	 width="24px" height="24px" viewBox="0 0 24 24" enable-background="new 0 0 24 24" xml:space="preserve">
<g>
	<g>
		<path fill="#FFFFFF" d="M9.517,15.225c3.14,0,4.552-3.63,4.552-6.208c0-3.519-1.574-5.379-4.552-5.379
			c-2.978,0-4.552,1.86-4.552,5.379C4.965,11.595,6.377,15.225,9.517,15.225z M9.517,4.465c2.506,0,3.724,1.489,3.724,4.552
			c0,2.169-1.184,5.379-3.724,5.379s-3.724-3.21-3.724-5.379C5.793,5.954,7.011,4.465,9.517,4.465z M13.719,14.226
			c-0.222-0.035-0.437,0.119-0.473,0.345s0.118,0.438,0.344,0.474c3.52,0.557,4.22,1.619,4.614,4.736
			c-0.164,0.438-2.846,1.237-8.687,1.237c-5.854,0-8.534-0.804-8.687-1.234c0.395-3.119,1.094-4.183,4.614-4.739
			c0.226-0.035,0.38-0.247,0.344-0.474c-0.036-0.226-0.247-0.38-0.474-0.344c-4.062,0.642-4.893,2.146-5.311,5.498
			C0.001,19.741,0,19.759,0,19.775c0,1.868,6.656,2.069,9.517,2.069c2.862,0,9.517-0.201,9.517-2.069
			c0-0.017-0.001-0.034-0.003-0.051C18.612,16.373,17.782,14.869,13.719,14.226z M12.281,3.594c0.204,0.102,0.453,0.019,0.555-0.186
			c0.479-0.959,1.417-1.425,2.87-1.425c2.302,0,3.329,1.148,3.329,3.724c0,1.76-0.903,4.552-3.329,4.552
			c-0.119,0-0.234-0.007-0.347-0.02c-0.227-0.029-0.433,0.136-0.459,0.363s0.136,0.433,0.362,0.459
			c0.144,0.017,0.291,0.026,0.443,0.026c3.028,0,4.157-3.3,4.157-5.379c0-3.021-1.399-4.552-4.157-4.552
			c-1.771,0-2.987,0.634-3.61,1.884C11.993,3.244,12.076,3.492,12.281,3.594z M23.996,15.166c-0.425-2.975-0.861-4.677-4.873-5.078
			c-0.226-0.022-0.43,0.143-0.453,0.37c-0.022,0.228,0.144,0.43,0.371,0.453c3.402,0.34,3.724,1.5,4.127,4.313
			c-0.052,0.078-0.492,0.54-3.744,0.734c-0.229,0.014-0.402,0.209-0.389,0.438c0.013,0.22,0.195,0.389,0.413,0.389h0.024
			C22.688,16.593,24,16.141,24,15.225C24,15.204,23.998,15.185,23.996,15.166z"/>
	</g>
</g>
</svg>
