<?xml version="1.0" encoding="utf-8"?>
<!-- Generator: Adobe Illustrator 16.0.0, SVG Export Plug-In . SVG Version: 6.00 Build 0)  -->
<!DOCTYPE svg PUBLIC "-//W3C//DTD SVG 1.1//EN" "http://www.w3.org/Graphics/SVG/1.1/DTD/svg11.dtd">
<svg version="1.1" id="Layer_1" xmlns="http://www.w3.org/2000/svg" xmlns:xlink="http://www.w3.org/1999/xlink" x="0px" y="0px"
	 width="24px" height="24px" viewBox="0 0 24 24" enable-background="new 0 0 24 24" xml:space="preserve">
<g>
	<g>
		<g>
			<path d="M20.615,0H3.384C1.959,0,0.8,1.153,0.8,2.571v14.571c0,1.205,0.828,2.064,2.442,2.548l12.07,4.215
				c0.19,0.063,0.38,0.094,0.564,0.095h0.004c0.489,0,0.952-0.202,1.339-0.586c0.501-0.497,0.812-1.258,0.812-1.985v-1.715h2.585
				c1.426,0,2.585-1.153,2.585-2.571V2.571C23.2,1.153,22.041,0,20.615,0z M22.339,17.143c0,0.945-0.773,1.715-1.724,1.715H18.03V12
				h2.154c0.238,0,0.431-0.192,0.431-0.429s-0.192-0.428-0.431-0.428H18.03V8.571h2.154c0.238,0,0.431-0.192,0.431-0.428
				c0-0.237-0.192-0.429-0.431-0.429h-2.334c-0.466-1.135-1.779-1.546-2.264-1.691l-2.566-0.88h7.164
				c0.238,0,0.431-0.192,0.431-0.429c0-0.237-0.192-0.429-0.431-0.429h-9.663L3.094,1.738c-0.226-0.077-0.47,0.042-0.548,0.265
				C2.469,2.227,2.589,2.471,2.813,2.548l12.508,4.291c1.656,0.497,1.848,1.227,1.848,1.732v12.857c0,0.5-0.219,1.041-0.559,1.378
				c-0.154,0.153-0.406,0.336-0.73,0.336c0,0-0.001,0-0.002,0c-0.094,0-0.193-0.018-0.289-0.048l-12.08-4.22
				c-1.656-0.496-1.847-1.226-1.847-1.732V2.571c0-0.945,0.772-1.714,1.723-1.714h17.231c0.95,0,1.724,0.769,1.724,1.714V17.143z"/>
		</g>
	</g>
	<path fill="#F26722" d="M12.646,12.267c-0.612,0-1.5,0.835-1.5,2.143s0.888,2.144,1.5,2.144c0.611,0,1.499-0.836,1.499-2.144
		S13.258,12.267,12.646,12.267z"/>
	<path d="M12.646,17.409c-1.329,0-2.37-1.317-2.37-3c0-1.682,1.041-3,2.37-3c1.328,0,2.369,1.318,2.369,3
		C15.016,16.092,13.975,17.409,12.646,17.409z M12.646,12.267c-0.612,0-1.5,0.835-1.5,2.143s0.888,2.144,1.5,2.144
		c0.611,0,1.499-0.836,1.499-2.144S13.258,12.267,12.646,12.267z"/>
</g>
</svg>
