<?xml version="1.0" encoding="utf-8"?>
<!-- Generator: Adobe Illustrator 16.0.0, SVG Export Plug-In . SVG Version: 6.00 Build 0)  -->
<!DOCTYPE svg PUBLIC "-//W3C//DTD SVG 1.1//EN" "http://www.w3.org/Graphics/SVG/1.1/DTD/svg11.dtd">
<svg version="1.1" id="Layer_1" xmlns="http://www.w3.org/2000/svg" xmlns:xlink="http://www.w3.org/1999/xlink" x="0px" y="0px"
	 width="24px" height="24px" viewBox="0 0 24 24" enable-background="new 0 0 24 24" xml:space="preserve">
<g>
	<g>
		<path d="M16.202,15.429c-0.713,0-1.293,0.576-1.293,1.285S15.489,18,16.202,18s1.293-0.577,1.293-1.286
			S16.915,15.429,16.202,15.429z M16.202,17.143c-0.238,0-0.431-0.192-0.431-0.429c0-0.235,0.192-0.428,0.431-0.428
			c0.237,0,0.431,0.192,0.431,0.428C16.633,16.95,16.439,17.143,16.202,17.143z M20.942,10.329v-0.043
			c0-1.418-1.159-2.571-2.586-2.571h-6.033c0-1.891-1.547-3.429-3.448-3.429S5.428,5.824,5.428,7.714H3.703
			c-1.426,0-2.37,1.153-2.37,2.571v11.143c0,1.418,0.944,2.571,2.37,2.571h14.653c1.427,0,2.586-1.153,2.586-2.571v-1.758
			c0.982-0.199,1.725-1.064,1.725-2.1v-5.143C22.667,11.394,21.925,10.528,20.942,10.329z M12.201,8.571h6.155
			c0.881,0,1.601,0.662,1.704,1.509c-0.456-0.401-1.049-0.652-1.704-0.652h-6.51C12.004,9.16,12.123,8.873,12.201,8.571z
			 M8.875,5.143c1.427,0,2.586,1.154,2.586,2.572c0,0.642-0.243,1.242-0.671,1.714H6.963c-0.43-0.473-0.674-1.071-0.674-1.714
			C6.289,6.296,7.449,5.143,8.875,5.143z M20.081,21.429c0,0.945-0.773,1.714-1.725,1.714H3.703c-0.95,0-1.508-0.769-1.508-1.714
			V10.286c0-0.865,0.651-1.714,1.508-1.714h1.846C5.627,8.873,5.748,9.16,5.905,9.429H3.272c-0.238,0-0.431,0.192-0.431,0.428
			c0,0.237,0.192,0.429,0.431,0.429h3.484c0.003,0,0.007,0.002,0.01,0.002s0.007-0.002,0.01-0.002h11.58
			c0.951,0,1.725,0.769,1.725,1.714v1.714h-3.879c-1.664,0-3.017,1.346-3.017,3s1.353,3,3.017,3h3.879V21.429z M21.805,17.571
			c0,0.709-0.58,1.286-1.293,1.286h-4.31c-1.188,0-2.155-0.962-2.155-2.144c0-1.181,0.967-2.143,2.155-2.143h4.31
			c0.487,0,0.932-0.167,1.293-0.439V17.571z M20.942,13.627V12v-0.771c0.499,0.178,0.862,0.642,0.862,1.199
			S21.441,13.449,20.942,13.627z M14.909,6.857c1.901,0,3.447-1.538,3.447-3.428C18.356,1.538,16.811,0,14.909,0
			s-3.448,1.538-3.448,3.429C11.461,5.319,13.008,6.857,14.909,6.857z M14.909,0.857c1.426,0,2.586,1.154,2.586,2.572
			S16.335,6,14.909,6s-2.586-1.153-2.586-2.571S13.483,0.857,14.909,0.857z"/>
	</g>
</g>
<path fill-rule="evenodd" clip-rule="evenodd" fill="#F26722" d="M10.961,17.186l-2.898,2.882c-0.034,0.033-0.074,0.061-0.118,0.079
	c-0.044,0.018-0.091,0.027-0.138,0.027s-0.094-0.01-0.139-0.027c-0.044-0.019-0.084-0.046-0.118-0.079l-2.898-2.882
	c-0.142-0.14-0.142-0.368,0-0.509s0.371-0.141,0.512,0l2.28,2.267v-5.975h0.725v5.975l2.28-2.267c0.142-0.141,0.371-0.141,0.512,0
	C11.103,16.817,11.103,17.046,10.961,17.186z"/>
</svg>
