<?xml version="1.0" encoding="utf-8"?>
<!-- Generator: Adobe Illustrator 16.0.0, SVG Export Plug-In . SVG Version: 6.00 Build 0)  -->
<!DOCTYPE svg PUBLIC "-//W3C//DTD SVG 1.1//EN" "http://www.w3.org/Graphics/SVG/1.1/DTD/svg11.dtd">
<svg version="1.1" id="Layer_1" xmlns="http://www.w3.org/2000/svg" xmlns:xlink="http://www.w3.org/1999/xlink" x="0px" y="0px"
	 width="24px" height="24px" viewBox="0 0 24 24" enable-background="new 0 0 24 24" xml:space="preserve">
<g>
	<g>
		<path d="M22,9.942c-1.104,0-2,0.923-2,2.058c0,1.134,0.896,2.058,2,2.058c1.103,0,2-0.924,2-2.058
			C24,10.865,23.103,9.942,22,9.942z M12,9.942c-1.103,0-2,0.923-2,2.058c0,1.134,0.897,2.058,2,2.058c1.103,0,2-0.924,2-2.058
			C14,10.865,13.103,9.942,12,9.942z M2,9.942c-1.103,0-2,0.923-2,2.058c0,1.134,0.897,2.058,2,2.058S4,13.134,4,12
			C4,10.865,3.103,9.942,2,9.942z"/>
	</g>
</g>
</svg>
