<?xml version="1.0" encoding="utf-8"?>
<!-- Generator: Adobe Illustrator 16.0.0, SVG Export Plug-In . SVG Version: 6.00 Build 0)  -->
<!DOCTYPE svg PUBLIC "-//W3C//DTD SVG 1.1//EN" "http://www.w3.org/Graphics/SVG/1.1/DTD/svg11.dtd">
<svg version="1.1" id="Layer_1" xmlns="http://www.w3.org/2000/svg" xmlns:xlink="http://www.w3.org/1999/xlink" x="0px" y="0px"
	 width="24px" height="24px" viewBox="0 0 24 24" enable-background="new 0 0 24 24" xml:space="preserve">
<g>
	<path fill-rule="evenodd" clip-rule="evenodd" fill="#F26722" d="M13.852,9.057h6.792c0.751,0,1.359,0.608,1.359,1.358v2.264
		c0,0.751-0.608,1.359-1.359,1.359h-6.792c-0.75,0-1.358-0.608-1.358-1.359v-2.264C12.493,9.665,13.102,9.057,13.852,9.057z"/>
	<g>
		<g>
			<path d="M22,7.2h-4.4v-2c0-0.009-0.004-0.017-0.005-0.025c-0.002-0.035-0.009-0.07-0.021-0.103
				c-0.005-0.013-0.008-0.025-0.014-0.038c-0.019-0.043-0.046-0.083-0.079-0.117l-4.8-4.8c-0.035-0.034-0.074-0.061-0.118-0.08
				c-0.012-0.005-0.023-0.008-0.036-0.013c-0.034-0.012-0.069-0.019-0.105-0.021C12.416,0.004,12.408,0,12.4,0H2
				C0.896,0.001,0.001,0.896,0,2v18.4c0.001,1.104,0.896,1.998,2,2h8.44c0.191,0.931,1.01,1.599,1.96,1.6H22
				c1.104-0.001,1.998-0.896,2-2V9.2C23.998,8.096,23.104,7.201,22,7.2z M12.8,1.366L16.234,4.8H13.2c-0.221,0-0.4-0.179-0.4-0.4
				V1.366z M10.4,9.2V21.6H2c-0.663,0-1.2-0.537-1.2-1.199V2c0-0.663,0.538-1.2,1.2-1.2h10v3.6c0,0.663,0.537,1.2,1.2,1.2h3.6v1.6
				H12.4C11.296,7.201,10.401,8.096,10.4,9.2z M23.2,22c0,0.663-0.538,1.2-1.2,1.2h-9.6c-0.663,0-1.2-0.537-1.2-1.2V9.2
				c0-0.663,0.537-1.2,1.2-1.2H22c0.662,0,1.2,0.537,1.2,1.2V22z M20.4,8.8H14c-1.104,0.001-1.999,0.896-2,2v1.6
				c0.001,1.104,0.896,1.999,2,2h6.4c1.104-0.002,1.998-0.896,2-2v-1.6C22.398,9.696,21.504,8.801,20.4,8.8z M21.6,12.4
				c0,0.663-0.537,1.2-1.199,1.2H14c-0.663,0-1.2-0.537-1.2-1.2v-1.6c0-0.663,0.537-1.2,1.2-1.2h6.4c0.662,0,1.199,0.537,1.199,1.2
				V12.4z M13.6,15.2c-0.883,0-1.6,0.716-1.6,1.6s0.717,1.601,1.6,1.601c0.884,0,1.601-0.717,1.601-1.601S14.483,15.2,13.6,15.2z
				 M13.6,17.6c-0.441,0-0.8-0.358-0.8-0.8s0.358-0.8,0.8-0.8c0.442,0,0.801,0.358,0.801,0.8S14.042,17.6,13.6,17.6z M17.2,15.2
				c-0.884,0-1.601,0.716-1.601,1.6S16.316,18.4,17.2,18.4s1.6-0.717,1.6-1.601S18.084,15.2,17.2,15.2z M17.2,17.6
				c-0.441,0-0.8-0.358-0.8-0.8s0.358-0.8,0.8-0.8s0.8,0.358,0.8,0.8S17.642,17.6,17.2,17.6z M13.6,19.2c-0.883,0-1.6,0.716-1.6,1.6
				s0.717,1.601,1.6,1.601c0.884,0,1.601-0.717,1.601-1.601S14.483,19.2,13.6,19.2z M13.6,21.6c-0.441,0-0.8-0.358-0.8-0.8
				s0.358-0.8,0.8-0.8c0.442,0,0.801,0.358,0.801,0.8S14.042,21.6,13.6,21.6z M17.2,19.2c-0.884,0-1.601,0.716-1.601,1.6
				S16.316,22.4,17.2,22.4s1.6-0.717,1.6-1.601S18.084,19.2,17.2,19.2z M17.2,21.6c-0.441,0-0.8-0.358-0.8-0.8s0.358-0.8,0.8-0.8
				s0.8,0.358,0.8,0.8S17.642,21.6,17.2,21.6z M20.8,15.2c-0.884,0-1.6,0.716-1.6,1.6v4c0,0.884,0.716,1.601,1.6,1.601
				S22.4,21.684,22.4,20.8v-4C22.4,15.916,21.684,15.2,20.8,15.2z M21.6,20.8c0,0.441-0.358,0.8-0.8,0.8S20,21.241,20,20.8v-4
				c0-0.441,0.358-0.8,0.8-0.8s0.8,0.358,0.8,0.8V20.8z M4.117,7.083c0.156,0.156,0.409,0.156,0.565,0l3.6-3.6
				c0.152-0.157,0.149-0.407-0.005-0.561S7.874,2.766,7.717,2.917l-3.6,3.6C3.961,6.673,3.961,6.927,4.117,7.083z M7.6,5.2
				c-0.663,0-1.2,0.537-1.2,1.2c0,0.663,0.537,1.2,1.2,1.2c0.663,0,1.2-0.537,1.2-1.2C8.8,5.737,8.263,5.2,7.6,5.2z M7.6,6.8
				c-0.221,0-0.4-0.179-0.4-0.4S7.379,6,7.6,6C7.821,6,8,6.179,8,6.4S7.821,6.8,7.6,6.8z M4.8,4.8C5.462,4.8,6,4.263,6,3.6
				c0-0.663-0.538-1.2-1.2-1.2S3.6,2.937,3.6,3.6C3.6,4.263,4.137,4.8,4.8,4.8z M4.8,3.2c0.221,0,0.4,0.179,0.4,0.4S5.021,4,4.8,4
				C4.579,4,4.4,3.821,4.4,3.6S4.579,3.2,4.8,3.2z M2.8,10.8h4.8c0.221,0,0.4-0.179,0.4-0.4S7.821,10,7.6,10H2.8
				c-0.221,0-0.4,0.179-0.4,0.4S2.579,10.8,2.8,10.8z M8.4,11.6H2.8c-0.221,0-0.4,0.179-0.4,0.4s0.179,0.4,0.4,0.4h5.6
				c0.221,0,0.4-0.179,0.4-0.4S8.621,11.6,8.4,11.6z M4.4,13.2H2.8c-0.221,0-0.4,0.179-0.4,0.399c0,0.222,0.179,0.4,0.4,0.4h1.6
				c0.221,0,0.4-0.179,0.4-0.4C4.8,13.379,4.621,13.2,4.4,13.2z M8.4,13.2H6c-0.221,0-0.4,0.179-0.4,0.399C5.6,13.821,5.779,14,6,14
				h2.4c0.221,0,0.4-0.179,0.4-0.4C8.8,13.379,8.621,13.2,8.4,13.2z"/>
		</g>
	</g>
</g>
</svg>
