<?xml version="1.0" encoding="utf-8"?>
<!-- Generator: Adobe Illustrator 16.0.0, SVG Export Plug-In . SVG Version: 6.00 Build 0)  -->
<!DOCTYPE svg PUBLIC "-//W3C//DTD SVG 1.1//EN" "http://www.w3.org/Graphics/SVG/1.1/DTD/svg11.dtd">
<svg version="1.1" id="Layer_1" xmlns="http://www.w3.org/2000/svg" xmlns:xlink="http://www.w3.org/1999/xlink" x="0px" y="0px"
	 width="24px" height="24px" viewBox="0 0 24 24" enable-background="new 0 0 24 24" xml:space="preserve">
<path fill="#F26722" d="M12,21.933C12,22.521,12.724,23,13.614,23h0.808c0.891,0,1.614-0.479,1.614-1.067v-8.005
	c0-0.588-0.724-1.066-1.614-1.066h-0.808c-0.89,0-1.614,0.479-1.614,1.066V21.933z"/>
<g>
	<g>
		<path fill-rule="evenodd" clip-rule="evenodd" d="M19.924,6.803h-0.519c-1.145,0-2.075,0.935-2.075,2.085v13.027
			c0,1.15,0.931,2.085,2.075,2.085h0.519c1.145,0,2.075-0.935,2.075-2.085V8.888C21.999,7.738,21.068,6.803,19.924,6.803z
			 M20.961,21.915c0,0.575-0.465,1.043-1.037,1.043h-0.519c-0.572,0-1.037-0.468-1.037-1.043V8.888c0-0.575,0.465-1.042,1.037-1.042
			h0.519c0.572,0,1.037,0.468,1.037,1.042V21.915z M19.97,5.819L21.165,0l-5.909,0.269l1.347,1.586L2.001,14.368l2.02,2.379
			L18.623,4.233L19.97,5.819z M3.463,14.484L18.065,1.971l-0.673-0.792l2.193,0.175l-0.174,2.204l-0.673-0.793L4.137,15.277
			L3.463,14.484z M8.512,16.183H7.993c-1.144,0-2.075,0.936-2.075,2.085v3.647c0,1.15,0.931,2.085,2.075,2.085h0.519
			c1.145,0,2.075-0.935,2.075-2.085v-3.647C10.587,17.118,9.656,16.183,8.512,16.183z M9.549,21.915
			c0,0.575-0.465,1.043-1.037,1.043H7.993c-0.572,0-1.038-0.468-1.038-1.043v-3.647c0-0.574,0.465-1.042,1.038-1.042h0.519
			c0.572,0,1.037,0.468,1.037,1.042V21.915z M14.218,12.014h-0.519c-1.145,0-2.075,0.935-2.075,2.084v7.816
			c0,1.15,0.931,2.085,2.075,2.085h0.519c1.145,0,2.075-0.935,2.075-2.085v-7.816C16.293,12.949,15.362,12.014,14.218,12.014z
			 M15.255,21.915c0,0.575-0.465,1.043-1.037,1.043h-0.519c-0.572,0-1.037-0.468-1.037-1.043v-7.816
			c0-0.574,0.465-1.042,1.037-1.042h0.519c0.572,0,1.037,0.468,1.037,1.042V21.915z"/>
	</g>
</g>
</svg>
