<?xml version="1.0" encoding="utf-8"?>
<!-- Generator: Adobe Illustrator 16.0.0, SVG Export Plug-In . SVG Version: 6.00 Build 0)  -->
<!DOCTYPE svg PUBLIC "-//W3C//DTD SVG 1.1//EN" "http://www.w3.org/Graphics/SVG/1.1/DTD/svg11.dtd">
<svg version="1.1" id="Layer_1" xmlns="http://www.w3.org/2000/svg" xmlns:xlink="http://www.w3.org/1999/xlink" x="0px" y="0px"
	 width="24px" height="24px" viewBox="0 0 24 24" enable-background="new 0 0 24 24" xml:space="preserve">
<g>
	<g>
		<g>
			<path fill-rule="evenodd" clip-rule="evenodd" fill="#F26722" d="M16.918,7.882h-1.967c-0.218,0-0.395,0.176-0.395,0.393v8.627
				c0,0.217,0.177,0.393,0.395,0.393h1.967c0.218,0,0.394-0.176,0.394-0.393V8.274C17.312,8.058,17.136,7.882,16.918,7.882z
				 M21.246,12.196h-1.968c-0.217,0-0.394,0.102-0.394,0.229v5.032c0,0.127,0.177,0.229,0.394,0.229h1.968
				c0.217,0,0.393-0.102,0.393-0.229v-5.032C21.639,12.298,21.463,12.196,21.246,12.196z M12.984,10.627h-1.968
				c-0.217,0-0.393,0.132-0.393,0.295v6.47c0,0.163,0.176,0.294,0.393,0.294h1.968c0.216,0,0.393-0.131,0.393-0.294v-6.47
				C13.377,10.759,13.2,10.627,12.984,10.627z M8.656,14.156H6.688c-0.217,0-0.393,0.066-0.393,0.147v3.235
				c0,0.08,0.176,0.146,0.393,0.146h1.968c0.217,0,0.393-0.066,0.393-0.146v-3.235C9.049,14.223,8.873,14.156,8.656,14.156z"/>
		</g>
	</g>
	<path fill-rule="evenodd" clip-rule="evenodd" d="M23.973,18.784v1.677c0,0.769-0.569,1.408-1.311,1.521
		C22.586,21.994,22.508,22,22.427,22h-6.834H14.89H9.083H8.38H1.546c-0.08,0-0.159-0.006-0.235-0.018C0.57,21.869,0,21.229,0,20.461
		V3.539C0,2.69,0.693,2,1.546,2h20.908C23.307,2,24,2.69,24,3.539L23.973,18.784z M23.271,3.539c0-0.463-0.378-0.839-0.844-0.839
		H1.572c-0.465,0-0.844,0.376-0.844,0.839v2.519h22.542V3.539z M23.271,6.757H0.702v11.678h22.568V6.757z M23.271,19.134H0.702
		v1.327c0,0.435,0.333,0.792,0.758,0.836c0.028,0.002,0.057,0.004,0.086,0.004h20.88c0.029,0,0.058-0.002,0.086-0.004
		c0.425-0.044,0.758-0.401,0.758-0.836V19.134z M1.917,7.686h0.935c0.194,0,0.351,0.156,0.351,0.349
		c0,0.193-0.157,0.351-0.351,0.351H1.917c-0.194,0-0.351-0.157-0.351-0.351C1.566,7.842,1.724,7.686,1.917,7.686z M1.917,9.224
		h1.944c0.194,0,0.352,0.157,0.352,0.35c0,0.193-0.157,0.35-0.352,0.35H1.917c-0.194,0-0.351-0.156-0.351-0.35
		C1.566,9.381,1.724,9.224,1.917,9.224z M5.102,9.224h0.793c0.194,0,0.352,0.157,0.352,0.35c0,0.193-0.157,0.35-0.352,0.35H5.102
		c-0.194,0-0.351-0.156-0.351-0.35C4.751,9.381,4.908,9.224,5.102,9.224z M6.398,13.513h2.493c0.34,0,0.617,0.276,0.617,0.614v3.023
		h0.479v-6.146c0-0.339,0.277-0.614,0.617-0.614h2.492c0.341,0,0.617,0.275,0.617,0.614v6.146h0.479V8.253
		c0-0.339,0.276-0.615,0.617-0.615h2.492c0.341,0,0.617,0.276,0.617,0.615v3.351v0.282v5.265h0.479v-4.888
		c0-0.339,0.275-0.614,0.616-0.614h2.492c0.341,0,0.618,0.275,0.618,0.614V17.5c0,0.193-0.158,0.35-0.352,0.35H6.132
		c-0.194,0-0.351-0.156-0.351-0.35v-3.373C5.781,13.789,6.058,13.513,6.398,13.513z M19.102,17.15h2.322v-4.803h-2.322V17.15z
		 M14.896,17.15h2.322v-5.265v-0.282V8.338h-2.322V17.15z M10.69,17.15h2.322v-6.062H10.69V17.15z M6.484,17.15h2.322v-2.938H6.484
		V17.15z M9.332,9.224c0.193,0,0.352,0.157,0.352,0.35c0,0.193-0.158,0.35-0.352,0.35H7.022c-0.194,0-0.352-0.156-0.352-0.35
		c0-0.192,0.157-0.35,0.352-0.35H9.332z M9.738,8.385H4.039c-0.194,0-0.352-0.157-0.352-0.351c0-0.192,0.157-0.349,0.352-0.349
		h5.699c0.194,0,0.352,0.156,0.352,0.349C10.09,8.228,9.933,8.385,9.738,8.385z M2.59,3.342c0.568,0,1.031,0.461,1.031,1.027
		c0,0.565-0.463,1.026-1.031,1.026c-0.569,0-1.031-0.461-1.031-1.026C1.559,3.803,2.021,3.342,2.59,3.342z M2.59,4.695
		c0.181,0,0.328-0.146,0.328-0.326c0-0.181-0.147-0.327-0.328-0.327S2.262,4.188,2.262,4.369C2.262,4.549,2.41,4.695,2.59,4.695z
		 M5.215,3.342c0.568,0,1.031,0.461,1.031,1.027c0,0.565-0.462,1.026-1.031,1.026c-0.569,0-1.031-0.461-1.031-1.026
		C4.184,3.803,4.646,3.342,5.215,3.342z M5.215,4.695c0.181,0,0.328-0.146,0.328-0.326c0-0.181-0.147-0.327-0.328-0.327
		c-0.181,0-0.329,0.146-0.329,0.327C4.886,4.549,5.034,4.695,5.215,4.695z M7.839,3.342c0.569,0,1.031,0.461,1.031,1.027
		c0,0.565-0.462,1.026-1.031,1.026c-0.568,0-1.03-0.461-1.03-1.026C6.809,3.803,7.271,3.342,7.839,3.342z M7.839,4.695
		c0.182,0,0.329-0.146,0.329-0.326c0-0.181-0.147-0.327-0.329-0.327c-0.181,0-0.328,0.146-0.328,0.327
		C7.511,4.549,7.658,4.695,7.839,4.695z"/>
</g>
</svg>
