<?xml version="1.0" encoding="utf-8"?>
<!-- Generator: Adobe Illustrator 16.0.0, SVG Export Plug-In . SVG Version: 6.00 Build 0)  -->
<!DOCTYPE svg PUBLIC "-//W3C//DTD SVG 1.1//EN" "http://www.w3.org/Graphics/SVG/1.1/DTD/svg11.dtd">
<svg version="1.1" id="Layer_1" xmlns="http://www.w3.org/2000/svg" xmlns:xlink="http://www.w3.org/1999/xlink" x="0px" y="0px"
	 width="24px" height="24px" viewBox="0 0 24 24" enable-background="new 0 0 24 24" xml:space="preserve">
<g>
	<g>
		<path fill="#FFFFFF" d="M12,20c-1.15,0-2.087,0.897-2.087,2S10.85,24,12,24s2.087-0.897,2.087-2S13.15,20,12,20z M12,10
			c-1.15,0-2.087,0.897-2.087,2c0,1.103,0.937,2,2.087,2s2.087-0.897,2.087-2C14.087,10.897,13.15,10,12,10z M12,4
			c1.15,0,2.087-0.897,2.087-2S13.15,0,12,0S9.913,0.897,9.913,2S10.85,4,12,4z"/>
	</g>
</g>
</svg>
