<?xml version="1.0" encoding="utf-8"?>
<!-- Generator: Adobe Illustrator 16.0.0, SVG Export Plug-In . SVG Version: 6.00 Build 0)  -->
<!DOCTYPE svg PUBLIC "-//W3C//DTD SVG 1.1//EN" "http://www.w3.org/Graphics/SVG/1.1/DTD/svg11.dtd">
<svg version="1.1" id="Layer_1" xmlns="http://www.w3.org/2000/svg" xmlns:xlink="http://www.w3.org/1999/xlink" x="0px" y="0px"
	 width="24px" height="24px" viewBox="0 0 24 24" enable-background="new 0 0 24 24" xml:space="preserve">
<g>
	<g>
		<path d="M10,12.4c3.248,0,4.4-3.128,4.4-5.808C14.4,4.082,13.9,1.2,10,1.2c-3.9,0-4.4,2.881-4.4,5.392
			C5.6,9.271,6.752,12.4,10,12.4z M10,2c2.988,0,3.6,1.836,3.6,4.592c0,0.836-0.173,5.008-3.6,5.008S6.4,7.429,6.4,6.592
			C6.4,3.836,7.012,2,10,2z M13.971,18.663c-0.258,0.019-0.522,0.036-0.793,0.052c-1,0.057-2.069,0.085-3.178,0.085
			c-6.28,0-9.108-0.864-9.198-1.316c0.388-3.044,0.963-4.26,5.348-4.928c0.218-0.033,0.368-0.237,0.335-0.456
			s-0.236-0.37-0.456-0.335c-4.881,0.743-5.61,2.372-6.026,5.657C0.001,17.438,0,17.455,0,17.472C0,19.446,7.654,19.6,10,19.6
			c1.123,0,2.207-0.028,3.223-0.086c0.274-0.016,0.544-0.033,0.807-0.053c0.221-0.016,0.386-0.208,0.369-0.428
			C14.383,18.813,14.189,18.646,13.971,18.663z M15.601,12.894c0.179,0,0.342-0.121,0.388-0.301
			c0.055-0.214-0.075-0.432-0.289-0.487c-0.258-0.065-0.531-0.127-0.824-0.185c-0.283-0.056-0.584-0.107-0.904-0.156
			c-0.219-0.034-0.422,0.117-0.455,0.335s0.117,0.422,0.335,0.456c0.308,0.047,0.598,0.097,0.871,0.15
			c0.276,0.055,0.536,0.113,0.78,0.175C15.535,12.89,15.568,12.894,15.601,12.894z M23.6,16.4h-0.8V15.6c0-1.764-1.436-3.2-3.2-3.2
			c-1.764,0-3.199,1.436-3.199,3.2V16.4H15.6c-0.221,0-0.399,0.179-0.399,0.399V22.4c0,0.221,0.179,0.399,0.399,0.399h8
			c0.222,0,0.4-0.179,0.4-0.399V16.8C24,16.579,23.821,16.4,23.6,16.4z M17.2,15.6c0-1.323,1.076-2.399,2.399-2.399
			c1.324,0,2.4,1.076,2.4,2.399V16.4h-4.8V15.6z M23.2,22H16v-4.8h7.2V22z M19.2,19.477V20.8c0,0.222,0.179,0.4,0.399,0.4
			c0.222,0,0.4-0.179,0.4-0.4v-1.323c0.234-0.14,0.4-0.385,0.4-0.677c0-0.441-0.359-0.8-0.801-0.8c-0.44,0-0.8,0.358-0.8,0.8
			C18.8,19.093,18.966,19.338,19.2,19.477z"/>
	</g>
</g>
</svg>
