<?xml version="1.0" encoding="utf-8"?>
<!-- Generator: Adobe Illustrator 16.0.0, SVG Export Plug-In . SVG Version: 6.00 Build 0)  -->
<!DOCTYPE svg PUBLIC "-//W3C//DTD SVG 1.1//EN" "http://www.w3.org/Graphics/SVG/1.1/DTD/svg11.dtd">
<svg version="1.1" id="Layer_1" xmlns="http://www.w3.org/2000/svg" xmlns:xlink="http://www.w3.org/1999/xlink" x="0px" y="0px"
	 width="24px" height="24px" viewBox="0 0 24 24" enable-background="new 0 0 24 24" xml:space="preserve">
<g>
	<g>
		<path d="M12,15.13c3.959,0,5.739-4.575,5.739-7.825c0-4.438-1.985-6.782-5.739-6.782c-3.755,0-5.739,2.345-5.739,6.782
			C6.261,10.555,8.042,15.13,12,15.13z M12,1.565c3.16,0,4.695,1.877,4.695,5.739c0,2.735-1.492,6.782-4.695,6.782
			c-3.204,0-4.695-4.047-4.695-6.782C7.305,3.442,8.84,1.565,12,1.565z M23.995,20.805c-0.527-4.225-1.574-6.122-6.697-6.933
			c-0.28-0.045-0.552,0.149-0.597,0.435c-0.046,0.284,0.149,0.551,0.434,0.597c4.438,0.702,5.32,2.041,5.818,5.972
			c-0.206,0.551-3.588,1.56-10.953,1.56c-7.381,0-10.76-1.013-10.953-1.556c0.498-3.933,1.379-5.273,5.818-5.976
			c0.284-0.045,0.478-0.313,0.433-0.597c-0.045-0.285-0.311-0.479-0.597-0.434c-5.122,0.809-6.169,2.707-6.696,6.932
			C0.002,20.826,0,20.848,0,20.869c0,2.354,8.392,2.608,12,2.608s12-0.254,12-2.608C24,20.848,23.998,20.826,23.995,20.805z"/>
	</g>
</g>
</svg>
