<?xml version="1.0" encoding="utf-8"?>
<!-- Generator: Adobe Illustrator 16.0.0, SVG Export Plug-In . SVG Version: 6.00 Build 0)  -->
<!DOCTYPE svg PUBLIC "-//W3C//DTD SVG 1.1//EN" "http://www.w3.org/Graphics/SVG/1.1/DTD/svg11.dtd">
<svg version="1.1" id="Layer_1" xmlns="http://www.w3.org/2000/svg" xmlns:xlink="http://www.w3.org/1999/xlink" x="0px" y="0px"
	 width="24px" height="24px" viewBox="0 0 24 24" enable-background="new 0 0 24 24" xml:space="preserve">
<path fill-rule="evenodd" clip-rule="evenodd" d="M22.056,7.167c-0.368,0.208-0.588-0.093-0.807-0.466
	c-1.866-3.17-5.354-5.3-9.344-5.3C5.957,1.401,1.119,6.155,1.119,12c0,5.844,4.838,10.6,10.787,10.6c3.987,0,7.477-2.13,9.344-5.301
	c0.22-0.373,0.438-0.674,0.807-0.467c0.367,0.209,0.492,0.669,0.279,1.029c-2.075,3.513-5.951,5.859-10.366,5.859
	C5.353,23.721,0,18.478,0,12C0,5.521,5.354,0.279,11.969,0.279c4.412,0,8.29,2.345,10.366,5.86
	C22.548,6.499,22.423,6.959,22.056,7.167z M24,12l-2.232,1.675v-1.116H7.256v-1.117h14.512v-1.116L24,12z"/>
</svg>
