<?xml version="1.0" encoding="utf-8"?>
<!-- Generator: Adobe Illustrator 16.0.0, SVG Export Plug-In . SVG Version: 6.00 Build 0)  -->
<!DOCTYPE svg PUBLIC "-//W3C//DTD SVG 1.1//EN" "http://www.w3.org/Graphics/SVG/1.1/DTD/svg11.dtd">
<svg version="1.1" id="Layer_1" xmlns="http://www.w3.org/2000/svg" xmlns:xlink="http://www.w3.org/1999/xlink" x="0px" y="0px"
	 width="24px" height="24px" viewBox="0 0 24 24" enable-background="new 0 0 24 24" xml:space="preserve">
<g>
	<g>
		<path d="M16.179,15.429c-0.709,0-1.286,0.577-1.286,1.285c0,0.709,0.577,1.286,1.286,1.286s1.285-0.577,1.285-1.286
			C17.464,16.006,16.888,15.429,16.179,15.429z M16.179,17.143c-0.236,0-0.429-0.192-0.429-0.429s0.192-0.428,0.429-0.428
			s0.429,0.191,0.429,0.428S16.415,17.143,16.179,17.143z M20.893,10.329v-0.043c0-1.418-1.153-2.571-2.571-2.571h-6
			c0-1.891-1.538-3.429-3.429-3.429S5.464,5.824,5.464,7.714H3.75c-1.418,0-2.357,1.153-2.357,2.571v11.143
			C1.393,22.847,2.332,24,3.75,24h14.571c1.418,0,2.571-1.153,2.571-2.571v-1.758c0.978-0.199,1.715-1.064,1.715-2.1v-5.143
			C22.607,11.394,21.87,10.528,20.893,10.329z M12.2,8.571h6.121c0.875,0,1.592,0.662,1.694,1.51
			c-0.454-0.401-1.043-0.652-1.694-0.652h-6.474C12.004,9.16,12.123,8.873,12.2,8.571z M8.893,5.143
			c1.418,0,2.571,1.153,2.571,2.571c0,0.642-0.242,1.242-0.668,1.714H6.991C6.563,8.957,6.321,8.357,6.321,7.714
			C6.321,6.296,7.475,5.143,8.893,5.143z M20.036,21.429c0,0.945-0.77,1.714-1.715,1.714H3.75c-0.945,0-1.5-0.769-1.5-1.714V10.286
			c0-0.865,0.648-1.714,1.5-1.714h1.835C5.663,8.874,5.782,9.16,5.939,9.429H3.321c-0.237,0-0.429,0.192-0.429,0.428
			s0.191,0.429,0.429,0.429h3.462c0.004,0,0.008,0.002,0.013,0.002c0.004,0,0.008-0.002,0.012-0.002h11.513
			c0.945,0,1.715,0.769,1.715,1.714v1.714h-3.857c-1.654,0-3,1.347-3,3c0,1.654,1.346,3,3,3h3.857V21.429z M21.75,17.571
			c0,0.709-0.577,1.286-1.286,1.286h-4.285c-1.182,0-2.143-0.961-2.143-2.144c0-1.181,0.961-2.143,2.143-2.143h4.285
			c0.484,0,0.927-0.167,1.286-0.439V17.571z M20.893,13.627V11.23c0.496,0.178,0.857,0.642,0.857,1.199
			C21.75,12.985,21.389,13.449,20.893,13.627z M14.893,6.857c1.891,0,3.429-1.538,3.429-3.428S16.783,0,14.893,0
			c-1.89,0-3.429,1.538-3.429,3.429S13.003,6.857,14.893,6.857z M14.893,0.857c1.418,0,2.571,1.154,2.571,2.572S16.311,6,14.893,6
			s-2.571-1.153-2.571-2.571S13.475,0.857,14.893,0.857z"/>
	</g>
</g>
</svg>
