<?xml version="1.0" encoding="utf-8"?>
<!-- Generator: Adobe Illustrator 16.0.0, SVG Export Plug-In . SVG Version: 6.00 Build 0)  -->
<!DOCTYPE svg PUBLIC "-//W3C//DTD SVG 1.1//EN" "http://www.w3.org/Graphics/SVG/1.1/DTD/svg11.dtd">
<svg version="1.1" id="Layer_1" xmlns="http://www.w3.org/2000/svg" xmlns:xlink="http://www.w3.org/1999/xlink" x="0px" y="0px"
	 width="24px" height="24px" viewBox="0 0 24 24" enable-background="new 0 0 24 24" xml:space="preserve">
<g>
	<g>
		<path d="M3.36,8.64C1.507,8.64,0,10.147,0,12c0,1.853,1.507,3.36,3.36,3.36c1.853,0,3.36-1.508,3.36-3.36
			C6.72,10.147,5.213,8.64,3.36,8.64z M3.36,14.399c-1.323,0-2.4-1.076-2.4-2.399s1.077-2.4,2.4-2.4s2.4,1.077,2.4,2.4
			S4.683,14.399,3.36,14.399z M12,8.64c-1.853,0-3.36,1.507-3.36,3.36c0,1.853,1.507,3.36,3.36,3.36s3.36-1.508,3.36-3.36
			C15.36,10.147,13.853,8.64,12,8.64z M12,14.399c-1.323,0-2.4-1.076-2.4-2.399s1.077-2.4,2.4-2.4s2.4,1.077,2.4,2.4
			S13.323,14.399,12,14.399z M20.64,8.64c-1.853,0-3.359,1.507-3.359,3.36c0,1.853,1.507,3.36,3.359,3.36S24,13.853,24,12
			C24,10.147,22.492,8.64,20.64,8.64z M20.64,14.399c-1.323,0-2.399-1.076-2.399-2.399s1.076-2.4,2.399-2.4s2.4,1.077,2.4,2.4
			S21.963,14.399,20.64,14.399z"/>
	</g>
</g>
</svg>
