<?xml version="1.0" encoding="utf-8"?>
<!-- Generator: Adobe Illustrator 16.0.0, SVG Export Plug-In . SVG Version: 6.00 Build 0)  -->
<!DOCTYPE svg PUBLIC "-//W3C//DTD SVG 1.1//EN" "http://www.w3.org/Graphics/SVG/1.1/DTD/svg11.dtd">
<svg version="1.1" id="Layer_1" xmlns="http://www.w3.org/2000/svg" xmlns:xlink="http://www.w3.org/1999/xlink" x="0px" y="0px"
	 width="24px" height="24px" viewBox="0 0 24 24" enable-background="new 0 0 24 24" xml:space="preserve">
<g>
	<g>
		<path fill="#F26722" d="M3.72,0.5C1.944,0.5,0.5,1.944,0.5,3.72c0,1.776,1.444,3.22,3.22,3.22c1.775,0,3.22-1.444,3.22-3.22
			C6.94,1.944,5.496,0.5,3.72,0.5z M12,0.5c-1.775,0-3.22,1.444-3.22,3.22c0,1.776,1.444,3.22,3.22,3.22s3.22-1.444,3.22-3.22
			C15.22,1.944,13.775,0.5,12,0.5z M20.28,6.94c1.775,0,3.22-1.444,3.22-3.22c0-1.775-1.444-3.22-3.22-3.22
			c-1.776,0-3.221,1.444-3.221,3.22C17.06,5.496,18.504,6.94,20.28,6.94z M3.72,8.78C1.944,8.78,0.5,10.224,0.5,12
			c0,1.776,1.444,3.22,3.22,3.22c1.775,0,3.22-1.444,3.22-3.22C6.94,10.224,5.496,8.78,3.72,8.78z M12,8.78
			c-1.775,0-3.22,1.444-3.22,3.22c0,1.776,1.444,3.22,3.22,3.22s3.22-1.444,3.22-3.22C15.22,10.224,13.775,8.78,12,8.78z
			 M20.28,8.78c-1.776,0-3.221,1.444-3.221,3.22c0,1.776,1.444,3.22,3.221,3.22c1.775,0,3.22-1.444,3.22-3.22
			C23.5,10.224,22.056,8.78,20.28,8.78z M3.72,17.06c-1.776,0-3.22,1.444-3.22,3.221c0,1.774,1.444,3.22,3.22,3.22
			c1.775,0,3.22-1.445,3.22-3.22C6.94,18.504,5.496,17.06,3.72,17.06z M12,17.06c-1.775,0-3.22,1.444-3.22,3.221
			c0,1.774,1.444,3.22,3.22,3.22s3.22-1.445,3.22-3.22C15.22,18.504,13.775,17.06,12,17.06z M20.28,17.06
			c-1.776,0-3.221,1.444-3.221,3.221c0,1.774,1.444,3.22,3.221,3.22c1.775,0,3.22-1.445,3.22-3.22
			C23.5,18.504,22.056,17.06,20.28,17.06z"/>
	</g>
</g>
</svg>
