<?xml version="1.0" encoding="utf-8"?>
<!-- Generator: Adobe Illustrator 16.0.0, SVG Export Plug-In . SVG Version: 6.00 Build 0)  -->
<!DOCTYPE svg PUBLIC "-//W3C//DTD SVG 1.1//EN" "http://www.w3.org/Graphics/SVG/1.1/DTD/svg11.dtd">
<svg version="1.1" id="Layer_1" xmlns="http://www.w3.org/2000/svg" xmlns:xlink="http://www.w3.org/1999/xlink" x="0px" y="0px"
	 width="24px" height="24px" viewBox="0 0 24 24" enable-background="new 0 0 24 24" xml:space="preserve">
<path fill-rule="evenodd" clip-rule="evenodd" fill="#FF6600" d="M23.2,18.8h-0.566c-0.095,0.336-0.228,0.656-0.398,0.959
	l0.333,0.333c0.309,0.309,0.309,0.812,0,1.121l-0.556,0.556c-0.301,0.3-0.822,0.299-1.121,0l-0.334-0.334
	c-0.3,0.168-0.623,0.302-0.958,0.396V22.4c0,0.441-0.358,0.8-0.8,0.8H18c-0.441,0-0.8-0.358-0.8-0.8v-0.567
	c-0.335-0.096-0.656-0.229-0.959-0.398l-0.333,0.334c-0.299,0.299-0.821,0.3-1.121,0l-0.556-0.556c-0.309-0.31-0.308-0.813,0-1.121
	l0.334-0.333c-0.169-0.301-0.303-0.626-0.398-0.959H13.6c-0.441,0-0.8-0.358-0.8-0.8v-0.8c0-0.441,0.358-0.8,0.8-0.8h0.566
	c0.095-0.337,0.229-0.657,0.398-0.959l-0.333-0.333c-0.309-0.31-0.309-0.813,0-1.121l0.556-0.556c0.3-0.3,0.821-0.299,1.12,0
	l0.333,0.333c0.304-0.171,0.625-0.305,0.96-0.399V12.8c0-0.441,0.358-0.8,0.8-0.8h0.8c0.441,0,0.8,0.358,0.8,0.8v0.565
	c0.335,0.095,0.655,0.229,0.959,0.399l0.333-0.333c0.299-0.299,0.821-0.3,1.121,0l0.556,0.556c0.309,0.309,0.309,0.811,0,1.12
	l-0.334,0.334c0.169,0.301,0.304,0.624,0.398,0.959H23.2c0.441,0,0.8,0.358,0.8,0.8V18C24,18.441,23.642,18.8,23.2,18.8z M18.4,20
	c-1.323,0-2.4-1.077-2.4-2.4s1.077-2.399,2.4-2.399S20.8,16.276,20.8,17.6S19.724,20,18.4,20z M18.4,16
	c-0.883,0-1.601,0.718-1.601,1.6c0,0.883,0.718,1.601,1.601,1.601c0.882,0,1.6-0.718,1.6-1.601C20,16.718,19.282,16,18.4,16z
	 M15.601,12.493c-0.033,0-0.066-0.004-0.1-0.012c-0.039-0.011-0.085-0.019-0.125-0.029c-0.934,0.204-3.117,1.198-3.547,6.009
	c0.098,0.07,0.167,0.179,0.171,0.309c0.005,0.221-0.169,0.404-0.39,0.409C11.087,19.193,10.549,19.2,10,19.2
	c-2.346,0-10-0.153-10-2.129c0-0.016,0.001-0.033,0.003-0.05c0.416-3.284,1.145-4.913,6.026-5.657
	c0.218-0.033,0.423,0.117,0.456,0.335c0.006,0.042,0,0.083-0.006,0.123C6.967,12.181,8.099,12.837,9.8,12.8c0,0,2.226,0,3.601-1.6
	l0.378,0.188c0.06-0.022,0.124-0.034,0.192-0.024c0.653,0.099,1.219,0.21,1.729,0.34c0.214,0.055,0.343,0.272,0.288,0.486
	C15.941,12.373,15.778,12.493,15.601,12.493z M10,12c-3.248,0-4.4-3.129-4.4-5.808C5.6,3.682,6.1,0.8,10,0.8
	c3.9,0,4.399,2.882,4.399,5.392C14.399,8.871,13.247,12,10,12z"/>
</svg>
